<svg width="128" height="128" viewBox="0 0 128 128" fill="none" xmlns="http://www.w3.org/2000/svg">
  <circle cx="64" cy="64" r="60" fill="#9351b7" stroke="#7c3aed" stroke-width="4"/>
  <path d="M40 64C40 50.7452 50.7452 40 64 40C77.2548 40 88 50.7452 88 64C88 77.2548 77.2548 88 64 88C50.7452 88 40 77.2548 40 64Z" fill="white" opacity="0.2"/>
  <path d="M64 32C64 32 72 40 72 64C72 88 64 96 64 96" stroke="white" stroke-width="3" stroke-linecap="round"/>
  <path d="M64 32C64 32 56 40 56 64C56 88 64 96 64 96" stroke="white" stroke-width="3" stroke-linecap="round"/>
  <circle cx="64" cy="64" r="8" fill="white"/>
  <text x="64" y="120" text-anchor="middle" fill="#9351b7" font-family="Arial, sans-serif" font-size="12" font-weight="bold">SENSUS</text>
</svg>

